<?xml version="1.0" encoding="UTF-8"?>
<svg width="616" height="212" clip-rule="evenodd" fill-rule="evenodd" stroke-linejoin="round" version="1.1" viewBox="10 4 216.8 80.61" xml:space="preserve" xmlns="http://www.w3.org/2000/svg" xmlns:serif="http://www.serif.com/"><style>svg { 
    line-height:1.15;
    font-family:'Segoe UI',Arial,Helvetica,'DejaVu Sans',sans-serif;
    letter-spacing:-0.01em;
}
</style><defs><filter id="a" x="-.124" y="-.01821" width="1.249" height="1.036" color-interpolation-filters="sRGB"><feFlood flood-color="rgb(255,255,255)" result="flood"/><feComposite in="flood" in2="SourceGraphic" operator="in" result="composite1"/><feOffset dx="0.39999999999999991" dy="0" in="composite1" result="offset"/><feOffset dx="-0.39999999999999991" dy="0" in="composite1" result="offset2"/><feComposite in="SourceGraphic" in2="offset" result="composite2"/><feComposite in="composite2" in2="offset2" result="composite2"/></filter></defs><g transform="translate(-2.224 30.08)" clip-rule="evenodd" fill-rule="evenodd" stroke-linejoin="round"><g transform="translate(-6.25,-9.5)"><g clip-rule="evenodd" fill="none" stroke="#a0a0a0" stroke-linejoin="round" stroke-width="3"><path d="m211.9 149h-20.1v-32h40.2v32z"/><path d="m37.9 151.1v-7.2h17.89v14.4h-17.89z"/><path d="m212 107.8h-20.1v-31.78h40.08v31.78z" stop-color="#000000" style="font-variation-settings:normal"/><path d="m206.3 66.49h-25.8v-38.5h51.5v38.5z"/><path d="m78.57 159h-7.468v-19.87h14.89v19.87z"/><path d="m111.5 159h-7.518v-19.96h14.99v19.96z" serif:id="path1868"/><path d="m148.8 154.3h6.917v6.888h-13.92v-6.888z"/></g></g><g transform="translate(-6.25,-9.5)"><g stroke-linejoin="round"><path d="m34.41 20.02c-6.407 0-13.31 0.02244-13.31 9.373v120.7c0 3.695 2.6 7.105 7.588 7.105h193.3c6.456 0 6.906-3.544 6.906-10.22v-118.7c0.2007-4.523-0.2863-8.182-6.793-8.182z" fill="#9bb6aa" stroke="#759e8b" stroke-width="1.5"/><path d="m211.9 149h-20.1v-32h40.2v32z" fill="#cfcfcf"/><path d="m37.9 151.1v-7.2h17.89v14.4h-17.89z" fill="#cfcfcf"/><path d="m70.41 96.8v-32.74l2.494-2.24h32.66v34.98z" fill="#8c8c8c"/><g transform="translate(-182.6 -121)"><path d="m313.2 276.6h-3.203v-54.48h6.492v54.48z" fill="#808080"/><path d="m310 228.3h2.495v42.09h-2.495" fill="none" stroke="#000" stroke-opacity=".1745" stroke-width=".6px"/></g></g><g fill="#8c8c8c" stroke-linejoin="round"><path d="m154.2 74.98v-16.17l0.6488-0.7411h16.1v16.91z" stroke-width=".8171"/><path d="m178.5 85.98v-16.17l0.4062-0.7411h10.08v16.91z" stroke-width=".6466" serif:id="path502"/><path d="m154 114.7v-19.79l0.794-0.907h19.7v20.69z" serif:id="path502"/></g><path d="m212 107.8h-20.1v-31.78h40.08v31.78z" fill="#cfcfcf" stop-color="#000000" stroke-linejoin="miter" style="-inkscape-stroke:none;font-variation-settings:normal"/><g stroke-linejoin="round"><path d="m206.3 66.49h-25.8v-38.5h51.5v38.5z" fill="#cfcfcf"/><g transform="translate(-184.6 -120.8)"><path d="m219.5 150.1c0 3.686-3.004 6.69-6.689 6.69-3.714 0-6.69-3.004-6.69-6.69 0-3.798 2.976-6.803 6.69-6.803 3.685 0 6.689 3.005 6.689 6.803z" fill="#f2d592"/><path d="m216.1 150.1c0 1.701-1.418 3.005-3.118 3.005-1.701 0-2.977-1.304-2.977-3.005 0-1.7 1.276-3.118 2.977-3.118 1.7 0 3.118 1.418 3.118 3.118z" fill="#fff"/></g><g transform="translate(-182.6 -121)" opacity=".7824"><g transform="matrix(1.556 0 0 1.091 -124.2 -13.24)" stroke-width=".7675"><path d="m262 156.1h-40.39v-11.88h80.67v11.88z" fill="#3b3b3b"/><rect x="221.6" y="144.2" width="80.7" height="11.91" fill="none"/></g><path class="UnoptimicedTransforms" d="m225.4 147.4v1.19h-2.296v-2.296h2.296zm6.216 0v1.19h-2.296v-2.296h2.296zm6.216 0v1.19h-2.296v-2.296h2.296zm6.216 0v1.19h-2.296v-2.296h2.296zm6.216 0v1.19h-2.296v-2.296h2.296zm6.216 0v1.19h-2.296v-2.296h2.296zm6.216 0v1.19h-2.296v-2.296h2.296zm6.216 0v1.19h-2.296v-2.296h2.296zm6.216 0v1.19h-2.296v-2.296h2.296zm6.216 0v1.19h-2.296v-2.296h2.296zm6.216 0v1.19h-2.296v-2.296h2.296zm6.216 0v1.19h-2.296v-2.296h2.296zm6.216 0v1.19h-2.296v-2.296h2.296zm6.216 0v1.19h-2.296v-2.296h2.296zm6.216 0v1.19h-2.296v-2.296h2.296zm6.216 0v1.19h-2.296v-2.296h2.296zm6.216 0v1.19h-2.296v-2.296h2.296zm6.216 0v1.19h-2.296v-2.296h2.296zm6.216 0v1.19h-2.296v-2.296h2.296zm6.216 0v1.19h-2.296v-2.296h2.296zm-118.1 6.216v1.19h-2.296v-2.296h2.296zm6.216 0v1.19h-2.296v-2.296h2.296zm6.216 0v1.19h-2.296v-2.296h2.296zm6.216 0v1.19h-2.296v-2.296h2.296zm6.216 0v1.19h-2.296v-2.296h2.296zm6.216 0v1.19h-2.296v-2.296h2.296zm6.216 0v1.19h-2.296v-2.296h2.296zm6.216 0v1.19h-2.296v-2.296h2.296zm6.216 0v1.19h-2.296v-2.296h2.296zm6.216 0v1.19h-2.296v-2.296h2.296zm6.216 0v1.19h-2.296v-2.296h2.296zm6.216 0v1.19h-2.296v-2.296h2.296zm6.216 0v1.19h-2.296v-2.296h2.296zm6.216 0v1.19h-2.296v-2.296h2.296zm6.216 0v1.19h-2.296v-2.296h2.296zm6.216 0v1.19h-2.296v-2.296h2.296zm6.216 0v1.19h-2.296v-2.296h2.296zm6.216 0v1.19h-2.296v-2.296h2.296zm6.216 0v1.19h-2.296v-2.296h2.296zm6.216 0v1.19h-2.296v-2.296h2.296z" fill="#ff9"/><text x="223.14301" y="160.894" font-family="'Courier New'" font-size="4.791px" font-weight="bold"><tspan fill="#ffffff" font-family="'Courier New'" font-weight="bold">1</tspan></text></g><path d="m78.57 159h-7.468v-19.87h14.89v19.87z" fill="#cfcfcf" stroke-width=".5478"/><path d="m111.5 159h-7.518v-19.96h14.99v19.96z" fill="#cfcfcf" stroke-width=".5508" serif:id="path1868"/><g transform="translate(-185.9 -121.4)"><path d="m334.8 275.6h6.917v6.888h-13.92v-6.888z" fill="#bababa"/><path d="m334.7 246.4h8.192v29.99h-16.38v-29.99z" fill="#cfcfcf"/></g><g opacity=".4877"><g transform="translate(-182.5 -120.9)"><path d="m360.9 161.7v2.693h-12.78v-5.499h12.78z" fill="#3b3b3b"/><path d="m357.7 160.6h1.105v2.296h-2.296v-2.296z" fill="#ff9"/><path d="m351.5 160.6h1.078v2.296h-2.296v-2.296z" fill="#ff9"/></g><g transform="translate(-182.5 -114.9)" serif:id="DrawingGroup_13"><g serif:id="g2096"><path d="m360.9 161.7v2.693h-12.78v-5.499h12.78z" fill="#3b3b3b" serif:id="path2092"/></g><g serif:id="g2105"><path d="m357.7 160.6h1.105v2.296h-2.296v-2.296z" fill="#ff9" serif:id="path2101"/></g><g serif:id="g2135"><path d="m351.5 160.6h1.078v2.296h-2.296v-2.296z" fill="#ff9" serif:id="path2131"/></g></g></g><g transform="translate(-182.6 -121)"><path d="m214 236.8h-3.713v-54.68h7.313v54.68z" fill="#808080"/><path d="m217.6 230.4h-3.203v-41.3h3.203" fill="none" stop-color="#000000" stroke="#000" stroke-linejoin="miter" stroke-opacity=".1745" stroke-width=".6px" style="-inkscape-stroke:none;font-variation-settings:normal"/></g><g transform="translate(-184.5 -120.3)"><path d="m219.5 268.6c0 3.685-3.004 6.69-6.718 6.69-3.798 0-6.803-3.005-6.803-6.69 0-3.713 3.005-6.718 6.803-6.718 3.714 0 6.718 3.005 6.718 6.718z" fill="#f2d592"/><path d="m215.9 268.6c0 1.701-1.417 3.09-3.004 3.09-1.701 0-3.09-1.389-3.09-3.09 0-1.615 1.389-3.004 3.09-3.004 1.587 0 3.004 1.389 3.004 3.004z" fill="#fff"/></g><g transform="translate(-182.6 -121)"><path d="m360.3 150.1c0 3.799-3.118 6.804-6.803 6.804-3.714 0-6.69-3.005-6.69-6.804 0-3.713 2.976-6.718 6.69-6.718 3.685 0 6.803 3.005 6.803 6.718z" fill="#f2d592"/><path d="m356.7 150.2c0 1.7-1.389 3.004-3.09 3.004s-3.005-1.304-3.005-3.004c0-1.701 1.304-3.09 3.005-3.09s3.09 1.389 3.09 3.09z" fill="#fff"/><path d="m360.1 268.6c0 3.714-3.004 6.69-6.803 6.69-3.685 0-6.69-3.005-6.69-6.69 0-3.713 3.005-6.689 6.69-6.689 3.799 0 6.803 3.004 6.803 6.689z" fill="#f2d592"/><path d="m356.5 268.6c0 1.701-1.304 3.118-3.004 3.118-1.701 0-3.09-1.417-3.09-3.118 0-1.7 1.389-3.004 3.09-3.004 1.7 0 3.004 1.304 3.004 3.004z" fill="#fff"/></g><path d="m130.7 96h-13.66v-35h27.31v35z" fill="#858585" stroke-width="3.447"/></g><rect x="23.62" y="127.8" width="2.135" height="4.642" fill="#a0e58f" fill-opacity=".3223" stop-color="#000000" style="-inkscape-stroke:none;font-variation-settings:normal"/><rect x="23.62" y="134.2" width="2.135" height="4.642" fill="#e22d10" fill-opacity=".3223" stop-color="#000000" style="-inkscape-stroke:none;font-variation-settings:normal"/></g></g><g transform="translate(-8.474 20.58)"><g clip-rule="evenodd" fill="none" stroke="#fff" stroke-linejoin="round" stroke-width=".8"><circle cx="60.5" cy="26.5" r="1.3" stop-color="#000000" style="font-variation-settings:normal"/><circle cx="54.31" cy="26.5" r="1.3" stop-color="#000000" style="font-variation-settings:normal"/><circle cx="66.69" cy="26.5" r="1.3" stop-color="#000000" style="font-variation-settings:normal"/></g><text x="75.530533" y="-10.02196" fill="#4d4343" font-family="'Segoe UI', Arial, Helvetica, 'DejaVu Sans', sans-serif" font-size="6.237px" text-align="center" text-anchor="middle" xml:space="preserve"><tspan x="75.470535" y="-10.02196" fill="#666666" font-family="'Segoe UI', Arial, Helvetica, 'DejaVu Sans', sans-serif" font-size="6.237px" text-align="center" text-anchor="middle">UART0</tspan></text><g clip-rule="evenodd" fill-rule="evenodd" font-family="'Segoe UI', Arial, Helvetica, 'DejaVu Sans', sans-serif" font-size="4px" font-weight="bold" stroke-linejoin="round"><text x="46.720585" y="9.8872156" fill="#bcbcbc" xml:space="preserve"><tspan x="46.720585" y="9.8872156" fill="#bcbcbc" font-family="'Segoe UI', Arial, Helvetica, 'DejaVu Sans', sans-serif" font-size="4px" font-weight="bold">6</tspan></text><text x="67.681442" y="8.5168409" fill="#ed704b" xml:space="preserve"><tspan x="67.681442" y="8.5168409" fill="#ed704b" font-family="'Segoe UI', Arial, Helvetica, 'DejaVu Sans', sans-serif" font-size="4px" font-weight="bold">8</tspan></text><text x="85.27626" y="8.5168409" fill="#328de4" xml:space="preserve"><tspan x="85.27626" y="8.5168409" fill="#328de4" font-family="'Segoe UI', Arial, Helvetica, 'DejaVu Sans', sans-serif" font-size="4px" font-weight="bold">10</tspan></text></g><g fill="none" stroke-linecap="square" stroke-linejoin="miter" stroke-width=".7"><path d="m66.54 4.161c-0.0585 4.942-0.07569 6.807-3.058 9.814-2.982 3.007-2.991 6.945-2.991 11.2" filter="url(#a)" stroke="#ed704b"/><path d="m84.69 4.161a10.43 10.43 127.9 0 1-7.366 9.466l-3.317 1.193a11.05 11.05 125.4 0 0-7.366 10.36" clip-rule="evenodd" filter="url(#a)" stroke="#328de4"/><path d="m44.81 5.954v0.6916a8.164 8.164 62.58 0 0 3.462 6.674l1.904 1.341a9.749 9.749 62.58 0 1 4.135 7.97v2.546" clip-rule="evenodd" filter="url(#a)" stroke="#bcbcbc"/></g><rect x="58.11" y="-6.813" width="16.26" height="11.1" rx="3.474" ry="3.474" fill="#ed704b" stop-color="#000000" style="font-variation-settings:normal"/><g clip-rule="evenodd" fill-rule="evenodd"><text x="66.21479" y="1.738826" fill="#ffffff" font-family="'Segoe UI', Arial, Helvetica, 'DejaVu Sans', sans-serif" font-size="8.575px" stroke-linejoin="round" text-align="center" text-anchor="middle" xml:space="preserve"><tspan x="66.154793" y="1.738826" fill="#ffffff" font-family="'Segoe UI', Arial, Helvetica, 'DejaVu Sans', sans-serif" font-size="8.575px" text-align="center" text-anchor="middle">TX</tspan></text><rect x="76.86" y="-6.813" width="16.26" height="11.1" rx="3.474" ry="3.474" fill="#328de4" stop-color="#000000" style="font-variation-settings:normal"/><text x="84.966362" y="1.738826" fill="#ffffff" font-family="'Segoe UI', Arial, Helvetica, 'DejaVu Sans', sans-serif" font-size="8.575px" stroke-linejoin="round" text-align="center" text-anchor="middle" xml:space="preserve"><tspan x="84.906364" y="1.738826" fill="#ffffff" font-family="'Segoe UI', Arial, Helvetica, 'DejaVu Sans', sans-serif" font-size="8.575px" text-align="center" text-anchor="middle">RX</tspan></text></g><g><circle cx="60.5" cy="26.5" r="1.3" fill="#ed704b" stop-color="#000000" style="font-variation-settings:normal"/><circle cx="54.31" cy="26.5" r="1.3" clip-rule="evenodd" fill="#bcbcbc" fill-rule="evenodd" stop-color="#000000" style="font-variation-settings:normal"/><circle cx="66.69" cy="26.5" r="1.3" clip-rule="evenodd" fill="#328de4" fill-rule="evenodd" stop-color="#000000" style="font-variation-settings:normal"/><circle cx="44.59" cy="-2.496" r="8.53" fill="#bcbcbc" stop-color="#000000" stroke-width="0" style="font-variation-settings:normal"/></g><g transform="matrix(-1.253 0 0 -1.253 87.65 9.539)" fill="none" stroke="#000" stroke-linejoin="miter"><path class="UnoptimicedTransforms" transform="matrix(.6584 0 0 .6538 13.64 2.725)" d="m30.53 5.397h1.915m-3.344 1.797h4.774m-6.203 1.797h7.633m-9.062 1.797h10.49" clip-rule="evenodd" stroke-width=".4865"/><path d="m34.36 13.15v-3.411" stop-color="#000000" stroke-width=".3192" style="font-variation-settings:normal"/></g></g></svg>
