<?xml version="1.0" encoding="UTF-8"?>
<svg width="500" height="185" enable-background="new 0 0 794.505 191.868" overflow="visible" version="1.1" viewBox="0 0 1027 373.5" xml:space="preserve" xmlns="http://www.w3.org/2000/svg">
<g transform="translate(116.4 50.13)" aria-label="SOLID"><path d="m107.9 40.04c-3.855-11.27-13.94-27.58-41.22-27.58-32.32 0-37.96 23.73-37.96 34.1 0 23.43 19.57 31.44 34.7 37.37 32.32 12.46 37.96 14.53 48.34 23.13 13.64 10.97 16.6 26.69 16.6 37.96 0 30.84-21.65 66.14-74.44 66.14-19.57 0-38.56-4.746-53.98-16.31 4.447-15.12 5.041-24.02 5.336-27.88h3.857c8.598 17.79 26.1 30.84 49.52 30.84 31.14 0 43.89-20.46 43.89-39.44 0-24.02-16.91-32.92-36.78-40.92-34.7-14.54-38.56-16.02-46.56-23.13-10.08-8.304-14.83-23.13-14.83-36.78 0-38.26 30.84-57.53 65.84-57.53 23.13 0 43.3 8.896 50.42 13.64-2.371 4.447-7.709 16.31-8.604 26.4h-4.148z"/><path d="m368.6 106.9c0 59.6-42.2 104.9-110.1 104.9-62.17 0-107.2-38.21-107.2-101.5 0-60.74 40.21-102.7 110.1-102.7 59.6-1e-3 107.2 35.07 107.2 99.24zm-109.5 92.68c45.06 0 76.99-32.79 76.99-91.25 0-14.83-2.564-37.93-12.54-54.75-15.4-25.95-44.2-33.65-63.59-33.65-37.93 0-76.14 25.66-76.14 90.11 1e-3 55.61 31.37 89.54 75.28 89.54z"/><path d="m453.3 191.9c14.54 0 38.5-1.141 51.61-3.422-0.57 2.566-1.141 5.418-1.141 9.41 0 4.563 0.57 7.414 1.141 9.695-18.54-0.57-30.51-1.711-61.59-1.711-25.1 0-32.23 0.859-47.62 1.711 2.285-36.5 2.57-66.73 2.57-104.1 0-38.78-1.715-80.99-2.281-93.25 4.563 0.855 8.266 1.711 15.4 1.711 7.414 0 12.83-0.855 17.96-1.711-2.566 73-2.566 92.39-2.566 181.1 13.69 0.571 19.39 0.571 26.52 0.571z"/><path d="m533 10.26c4.563 1.141 7.984 1.711 15.68 1.711 7.98 0 11.69-0.57 16.54-1.711-1.711 33.93-2.281 67.87-2.281 101.8 0 51.33 1.141 74.14 1.996 95.53-5.422-0.852-11.4-1.711-17.68-1.711-6.273 0-10.55 0.859-15.11 1.711 1.996-31.08 2.852-45.62 2.852-101.5-1e-3 -41.06-1e-3 -43.63-1.997-95.82z"/><path d="m686.1 207.6c-2.848 0-37.93-1.141-45.34-1.141-7.699 0-14.26 0.289-30.51 1.141 1.996-28.8 3.422-48.48 3.422-114.1 0-42.49-0.574-53.33-2.285-83.84 15.69 0.57 31.09 0.855 46.77 0.855 51.04 0 78.42 0 104.9 21.1 24.81 19.68 31.37 47.05 31.37 71.86-1e-3 72.14-51.33 104.1-108.4 104.1zm47.91-168.8c-19.96-15.11-44.2-15.11-67.01-15.11-13.69 0-15.97 0.285-25.09 1.141-1.141 26.24-1.43 55.32-1.43 81.56 0 52.18 0 58.17 0.859 86.4 9.695 1.141 16.82 1.711 30.51 1.711 12.26 0 39.64 0 59.03-13.69 26.52-18.82 31.94-51.04 31.94-73.86 2e-3 -21.39-4.846-50.19-28.8-68.16z"/></g>
<g aria-label="For Raspberry Pi 4"><path d="m303.8 334.8h-16.42v17.29h-7.089v-40.79h25.92v5.716h-18.83v12.13h16.42z"/><path d="m309.3 336.6q0-4.455 1.765-8.013 1.765-3.586 4.959-5.492 3.194-1.933 7.341-1.933 6.136 0 9.946 3.951 3.838 3.951 4.147 10.48l0.028 1.597q0 4.483-1.737 8.013-1.709 3.53-4.931 5.464-3.194 1.933-7.397 1.933-6.416 0-10.28-4.259-3.838-4.287-3.838-11.4zm6.808 0.5884q0 4.679 1.933 7.341 1.933 2.634 5.379 2.634 3.446 0 5.351-2.69 1.933-2.69 1.933-7.873 0-4.595-1.989-7.285-1.961-2.69-5.351-2.69-3.334 0-5.295 2.662-1.961 2.634-1.961 7.901z"/><path d="m359.1 328q-1.345-0.2241-2.774-0.2241-4.679 0-6.304 3.586v20.73h-6.808v-30.32h6.5l0.1681 3.39q2.466-3.951 6.836-3.951 1.457 0 2.41 0.3922z"/><g fill="#a22846"><path d="m393.3 336.4h-7.901v15.72h-7.089v-40.79h14.35q7.061 0 10.9 3.166t3.838 9.162q0 4.091-1.989 6.864-1.961 2.746-5.492 4.231l9.162 17.01v0.3642h-7.593zm-7.901-5.688h7.285q3.586 0 5.604-1.793 2.017-1.821 2.017-4.959 0-3.278-1.877-5.071-1.849-1.793-5.548-1.849h-7.481z"/><path d="m431.6 352.1q-0.4483-0.8686-0.7845-2.83-3.25 3.39-7.957 3.39-4.567 0-7.453-2.606-2.886-2.606-2.886-6.444 0-4.847 3.586-7.425 3.614-2.606 10.31-2.606h4.175v-1.989q0-2.354-1.317-3.754-1.317-1.429-4.007-1.429-2.326 0-3.81 1.177-1.485 1.149-1.485 2.942h-6.808q0-2.494 1.653-4.651 1.653-2.185 4.483-3.418 2.858-1.233 6.36-1.233 5.323 0 8.489 2.69 3.166 2.662 3.25 7.509v13.67q0 4.091 1.149 6.528v0.4763zm-7.481-4.903q2.017 0 3.782-0.9806 1.793-0.9806 2.69-2.634v-5.716h-3.67q-3.782 0-5.688 1.317t-1.905 3.726q0 1.961 1.289 3.138 1.317 1.149 3.502 1.149z"/><path d="m461.5 343.8q0-1.821-1.513-2.774-1.485-0.9526-4.959-1.681t-5.8-1.849q-5.099-2.466-5.099-7.145 0-3.923 3.306-6.556t8.405-2.634q5.436 0 8.77 2.69 3.362 2.69 3.362 6.977h-6.808q0-1.961-1.457-3.25-1.457-1.317-3.866-1.317-2.241 0-3.67 1.037-1.401 1.037-1.401 2.774 0 1.569 1.317 2.438 1.317 0.8686 5.323 1.765 4.007 0.8686 6.276 2.101 2.297 1.205 3.39 2.914 1.121 1.709 1.121 4.147 0 4.091-3.39 6.64-3.39 2.522-8.882 2.522-3.726 0-6.64-1.345-2.914-1.345-4.539-3.698t-1.625-5.071h6.612q0.1401 2.41 1.821 3.726 1.681 1.289 4.455 1.289 2.69 0 4.091-1.009 1.401-1.037 1.401-2.69z"/><path d="m500.7 337.2q0 7.033-3.194 11.24-3.194 4.175-8.574 4.175-4.987 0-7.985-3.278v14.37h-6.808v-41.97h6.276l0.2802 3.082q2.998-3.642 8.153-3.642 5.548 0 8.686 4.147 3.166 4.119 3.166 11.46zm-6.78-0.5884q0-4.539-1.821-7.201-1.793-2.662-5.155-2.662-4.175 0-5.996 3.446v13.45q1.849 3.53 6.052 3.53 3.25 0 5.071-2.606 1.849-2.634 1.849-7.957z"/><path d="m533.1 337.2q0 7.061-3.166 11.24-3.138 4.175-8.658 4.175-5.323 0-8.293-3.838l-0.3362 3.278h-6.164v-43.04h6.808v15.63q2.942-3.474 7.929-3.474 5.548 0 8.714 4.119t3.166 11.52zm-6.808-0.5884q0-4.931-1.737-7.397-1.737-2.466-5.043-2.466-4.427 0-6.22 3.866v12.5q1.821 3.951 6.276 3.951 3.194 0 4.931-2.382 1.737-2.382 1.793-7.201z"/><path d="m552.1 352.6q-6.472 0-10.51-4.063-4.007-4.091-4.007-10.87v-0.8406q0-4.539 1.737-8.097 1.765-3.586 4.931-5.576 3.166-1.989 7.061-1.989 6.192 0 9.554 3.951 3.39 3.951 3.39 11.18v2.746h-19.81q0.3082 3.754 2.494 5.94 2.213 2.185 5.548 2.185 4.679 0 7.621-3.782l3.67 3.502q-1.821 2.718-4.875 4.231-3.026 1.485-6.808 1.485zm-0.8125-25.97q-2.802 0-4.539 1.961-1.709 1.961-2.185 5.464h12.97v-0.5043q-0.2241-3.418-1.821-5.155-1.597-1.765-4.427-1.765z"/><path d="m585.4 328q-1.345-0.2241-2.774-0.2241-4.679 0-6.304 3.586v20.73h-6.808v-30.32h6.5l0.1681 3.39q2.466-3.951 6.836-3.951 1.457 0 2.41 0.3922z"/><path d="m605.6 328q-1.345-0.2241-2.774-0.2241-4.679 0-6.304 3.586v20.73h-6.808v-30.32h6.5l0.1681 3.39q2.466-3.951 6.836-3.951 1.457 0 2.41 0.3922z"/><path d="m621 342.3 6.164-20.57h7.257l-12.05 34.91q-2.774 7.649-9.414 7.649-1.485 0-3.278-0.5043v-5.267l1.289 0.0841q2.578 0 3.866-0.9526 1.317-0.9246 2.073-3.138l0.9806-2.606-10.65-30.18h7.341z"/><path d="m660.4 336.9v15.16h-7.089v-40.79h15.61q6.836 0 10.84 3.558 4.035 3.558 4.035 9.414 0 5.996-3.951 9.33-3.923 3.334-11.01 3.334zm0-5.688h8.518q3.782 0 5.772-1.765 1.989-1.793 1.989-5.155 0-3.306-2.017-5.267-2.017-1.989-5.548-2.045h-8.714z"/><path d="m696.6 352.1h-6.808v-30.32h6.808zm-7.229-38.19q0-1.569 0.9806-2.606 1.009-1.037 2.858-1.037t2.858 1.037 1.009 2.606q0 1.541-1.009 2.578-1.009 1.009-2.858 1.009t-2.858-1.009q-0.9806-1.037-0.9806-2.578z"/><path d="m740.9 337.5h5.071v5.464h-5.071v9.078h-6.808v-9.078h-17.62l-0.1961-4.147 17.6-27.57h7.033zm-17.48 0h10.67v-17.04l-0.5043 0.8966z"/></g></g></svg>
